<svg width="29" height="53" viewBox="0 0 29 53" fill="none" xmlns="http://www.w3.org/2000/svg">
<path d="M18.3333 36H5.71036V34.3865L9.41182 33.8171C9.69654 33.7749 9.90745 33.6747 10.0445 33.5165C10.1922 33.3584 10.266 33.1422 10.266 32.868V13.0636H8.39945C7.70345 13.0636 7.06545 13.1005 6.48545 13.1744C5.90545 13.2376 5.46782 13.322 5.17255 13.4275C4.93 13.5118 4.74018 13.6278 4.60309 13.7755C4.466 13.9125 4.36582 14.1076 4.30255 14.3607L3.27436 18.8373H1.37618C1.27073 17.4875 1.23382 16.2062 1.26545 14.9935C1.30764 13.7807 1.40255 12.5469 1.55018 11.292H22.5567C22.6938 12.5469 22.7676 13.786 22.7782 15.0093C22.7887 16.2325 22.7413 17.5085 22.6358 18.8373H20.7376L19.7253 14.3607C19.6725 14.1076 19.5776 13.9125 19.4405 13.7755C19.3035 13.6278 19.1189 13.5118 18.8869 13.4275C18.5705 13.3115 18.1382 13.2218 17.5898 13.1585C17.052 13.0953 16.4193 13.0636 15.6916 13.0636H13.7776V32.868C13.7776 33.1422 13.8515 33.3584 13.9991 33.5165C14.1467 33.6747 14.3576 33.7749 14.6318 33.8171L18.3333 34.3865V36Z" fill="black"/>
<circle cx="22.6562" cy="29.9062" r="6.34375" fill="#448469"/>
</svg>
