<svg width="244" height="26" viewBox="0 0 244 26" fill="none" xmlns="http://www.w3.org/2000/svg">
<path fill-rule="evenodd" clip-rule="evenodd" d="M21.3008 0H21.3926H27.4707V10.1602H36.5586V0H42.6934V10.9277L46.7012 0H52.502L57.3008 12.9872V0H67.373C70.4082 0 72.7812 0.673828 74.4922 2.02148C76.2031 3.36914 77.0586 5.27344 77.0586 7.73438C77.0586 9.51562 76.6953 10.9922 75.9688 12.1641C75.2539 13.3359 74.1289 14.2852 72.5938 15.0117L77.9375 25.3301V25.5938H71.3281L66.8105 16.5586H63.4707V25.5938H61.959H57.3008H55.332L53.8379 20.8125H45.3828L43.9062 25.5938H42.6934H37.3145H36.5586V14.9062H27.4707V25.5938H21.3008V4.76367H13.7109V25.5938H7.54102V4.76367H0V0H21.3008ZM52.3613 16.0488H46.8594L49.6016 7.17188L52.3613 16.0488ZM63.4707 11.7949H67.373C68.5449 11.7949 69.4238 11.4902 70.0098 10.8809C70.6074 10.2598 70.9062 9.39844 70.9062 8.29688C70.9062 7.19531 70.6074 6.33398 70.0098 5.71289C69.4121 5.08008 68.5332 4.76367 67.373 4.76367H63.4707V11.7949ZM97.375 0H97.3008H91.2051V16.7168C91.2051 18.2988 90.877 19.4414 90.2207 20.1445C89.5645 20.8477 88.5977 21.1992 87.3203 21.1992C84.7891 21.1992 83.4883 19.7988 83.418 16.998V0H77.2129V16.875C77.248 19.6875 78.1621 21.9023 79.9551 23.5195C81.748 25.1367 84.2031 25.9453 87.3203 25.9453C89.3828 25.9453 91.1699 25.582 92.6816 24.8555C94.1934 24.1289 95.3535 23.0742 96.1621 21.6914C96.7707 20.6418 97.1502 19.4496 97.3008 18.1145V25.5938H103.471V9.66797L112.541 25.5938H118.676V0H112.523V15.9258L103.471 0H97.375ZM140.471 18.8438L143.002 16.0664L148.451 25.5938H155.764L147.115 11.3203L153.213 3.33883V16.875C153.248 19.6875 154.162 21.9023 155.955 23.5195C157.748 25.1367 160.203 25.9453 163.32 25.9453C165.212 25.9453 166.872 25.6397 168.301 25.0283V25.5938H174.471V19.6172L173.873 7.36523L180.078 25.5938H184.156L190.344 7.38281L189.746 19.6172V25.5938H191.314H195.934H197.906L199.383 20.8125H207.838L209.332 25.5938H210.301H215.959H216.471V16.5586H219.811L224.328 25.5938H230.938V25.3301L225.594 15.0117C227.129 14.2852 228.254 13.3359 228.969 12.1641C229.695 10.9922 230.059 9.51562 230.059 7.73438C230.059 5.27344 229.203 3.36914 227.492 2.02148C225.781 0.673828 223.408 0 220.373 0H210.301V10.2808L206.502 0H200.701L195.934 12.9992V0H187.812L182.117 17.8066L176.404 0H173.375H168.301H167.205V16.7168C167.205 18.2988 166.877 19.4414 166.221 20.1445C165.564 20.8477 164.598 21.1992 163.32 21.1992C160.789 21.1992 159.488 19.7988 159.418 16.998V0H155.764H153.213H148.135L142.615 8.0332L140.471 11.2852V0H134.301V25.5938H140.471V18.8438ZM200.859 16.0488H206.361L203.602 7.17188L200.859 16.0488ZM220.373 11.7949H216.471V4.76367H220.373C221.533 4.76367 222.412 5.08008 223.01 5.71289C223.607 6.33398 223.906 7.19531 223.906 8.29688C223.906 9.39844 223.607 10.2598 223.01 10.8809C222.424 11.4902 221.545 11.7949 220.373 11.7949Z" fill="white"/>
<circle cx="237.367" cy="19.5938" r="6" fill="#EDF11A"/>
</svg>
